Poster: 
http://imageplay.net/img/tya22274456/The_Three_Stooges_2012.jpg


Info:
Format : AVI
Format/Info : Audio Video Interleave
File size : 1.39 GiB
Duration : 1h 32mn
Overall bit rate : 2 155 Kbps
Writing application : VirtualDubMod 1.5.10.2 (build 2540/release)
Writing library : VirtualDubMod build 2540/release

Video
ID : 0
Format : MPEG-4 Visual
Format profile : Advanced Simple@L5
Format settings, BVOP : 2
Format settings, QPel : No
Format settings, GMC : No warppoints
Format settings, Matrix : Default (H.263)
Codec ID : XVID
Codec ID/Hint : XviD
Duration : 1h 32mn
Bit rate : 1 697 Kbps
Width : 720 pixels
Height : 384 pixels
Display aspect ratio : 1.875
Frame rate : 23.976 fps
Color space : YUV
Chroma subsampling : 4:2:0
Bit depth : 8 bits
Scan type : Progressive
Compression mode : Lossy
Bits/(Pixel*Frame) : 0.256
Stream size : 1.09 GiB (79%)
Writing library : XviD 1.2.1 (UTC 2008-12-04)

Audio
ID : 1
Format : AC-3
Format/Info : Audio Coding 3
Mode extension : CM (complete main)
Codec ID : 2000
Duration : 1h 32mn
Bit rate mode : Constant
Bit rate : 448 Kbps
Channel(s) : 6 channels
Channel positions : Front: L C R, Side: L R, LFE
Sampling rate : 48.0 KHz
Bit depth : 16 bits
Compression mode : Lossy
Stream size : 295 MiB (21%)
Alignment : Split accross interleaves
Interleave, duration : 42 ms (1.00 video frame)
Interleave, preload duration : 500 ms

SCREENS: 
http://imageplay.net/img/tya22274472/a.png 
http://imageplay.net/img/tya22274471/b.png 
http://imageplay.net/img/tya22274470/c.png 
http://imageplay.net/img/tya22274469/d.png 
http://imageplay.net/img/tya22274468/e.png 
http://imageplay.net/img/tya22274467/f.png